<?xml version="1.0" standalone="no"?>
<!DOCTYPE svg PUBLIC "-//W3C//DTD SVG 20010904//EN"
 "http://www.w3.org/TR/2001/REC-SVG-20010904/DTD/svg10.dtd">
<svg version="1.0" xmlns="http://www.w3.org/2000/svg"
 width="1113.000000pt" height="717.000000pt" viewBox="0 0 1113.000000 717.000000"
 preserveAspectRatio="xMidYMid meet">

<g transform="translate(0.000000,717.000000) scale(0.100000,-0.100000)"
fill="#000000" stroke="none">
<path d="M3042 6953 l3 -178 913 -3 912 -2 0 180 0 180 -915 0 -915 0 2 -177z"/>
<path d="M5790 5530 l0 -1570 185 0 185 0 2 1437 3 1436 224 -799 c123 -439
230 -820 238 -847 l14 -47 301 2 302 3 241 823 240 823 3 -1415 2 -1416 190 0
190 0 0 1570 0 1570 -340 0 -339 0 -9 -32 c-190 -684 -468 -1645 -473 -1636
-4 7 -104 355 -223 773 -120 418 -226 790 -237 828 l-20 67 -339 0 -340 0 0
-1570z"/>
<path d="M8870 5530 l0 -1570 980 0 980 0 -2 178 -3 177 -782 3 -783 2 0 555
0 555 600 0 600 0 0 180 0 180 -600 0 -600 0 0 475 0 475 775 0 775 0 -2 178
-3 177 -967 3 -968 2 0 -1570z"/>
<path d="M40 5520 l0 -1560 185 0 185 0 0 1418 c0 815 4 1411 9 1402 5 -8 245
-638 534 -1400 289 -762 528 -1393 532 -1403 7 -16 29 -17 324 -15 l316 3 3
1558 2 1557 -190 0 -190 0 -2 -1329 -3 -1330 -504 1330 -505 1329 -348 0 -348
0 0 -1560z"/>
<path d="M3795 6309 c-343 -44 -648 -241 -818 -528 -221 -374 -235 -877 -34
-1266 80 -155 225 -319 360 -408 91 -60 237 -126 344 -154 131 -34 372 -43
509 -19 299 52 567 223 732 468 90 133 145 268 183 451 31 145 31 389 0 534
-109 518 -481 865 -986 923 -104 11 -191 11 -290 -1z m400 -413 c238 -82 415
-279 486 -541 32 -116 32 -364 0 -480 -78 -288 -291 -501 -559 -561 -113 -25
-302 -16 -407 20 -295 101 -487 370 -511 713 -24 361 139 669 431 814 113 56
183 69 345 66 116 -3 146 -7 215 -31z"/>
<path d="M3465 3218 c-28 -155 -52 -314 -48 -320 4 -7 1782 -12 1784 -5 0 1
13 82 28 180 l27 177 -892 0 -893 0 -6 -32z"/>
<path d="M6105 3218 c-2 -7 -112 -699 -245 -1538 -132 -839 -243 -1540 -246
-1557 l-6 -33 186 0 c135 0 186 3 186 12 0 22 451 2853 456 2857 2 2 4 -4 4
-14 0 -10 43 -386 95 -836 52 -450 95 -822 95 -828 0 -8 89 -11 297 -9 l296 3
373 835 c206 459 374 832 374 827 0 -4 -101 -640 -225 -1413 -124 -774 -225
-1413 -225 -1420 0 -12 31 -14 182 -12 l182 3 248 1560 c136 858 247 1563 248
1568 0 4 -152 7 -338 7 l-337 0 -364 -832 c-200 -458 -366 -836 -370 -840 -4
-4 -51 362 -105 815 -53 452 -100 830 -102 840 -5 16 -29 17 -330 17 -251 0
-326 -3 -329 -12z"/>
<path d="M9180 3223 c-1 -5 -112 -710 -249 -1568 l-247 -1560 955 -3 c525 -1
956 0 958 2 2 2 15 70 28 152 14 82 27 161 30 176 l4 28 -767 2 -768 3 86 550
86 550 589 5 590 5 27 160 c15 88 27 168 27 178 1 16 -33 17 -584 17 -461 0
-585 3 -585 13 0 6 32 220 72 475 l72 462 757 0 757 0 6 28 c3 15 15 83 26
152 11 69 22 137 25 153 l5 27 -950 0 c-523 0 -950 -3 -950 -7z"/>
<path d="M550 3204 c0 -10 -479 -3055 -486 -3087 l-6 -27 181 0 c179 0 181 0
186 23 6 26 445 2781 446 2799 0 7 4 4 8 -7 4 -11 149 -649 322 -1417 l314
-1398 292 0 c170 0 293 4 293 9 0 12 478 3048 486 3084 l6 27 -183 -2 -183 -3
-211 -1333 c-116 -738 -213 -1325 -217 -1315 -6 17 -598 2635 -598 2648 0 3
-146 5 -325 5 -179 0 -325 -3 -325 -6z"/>
<path d="M3984 2425 c-469 -83 -852 -426 -1013 -910 -55 -167 -66 -241 -65
-455 0 -179 2 -203 26 -290 54 -193 120 -318 233 -438 113 -121 268 -210 450
-259 89 -23 120 -26 270 -27 130 -1 190 3 253 17 256 56 460 173 648 369 180
189 295 412 366 708 19 82 22 122 22 295 0 219 -7 260 -74 432 -102 265 -332
460 -635 539 -125 33 -352 42 -481 19z m341 -380 c110 -23 189 -68 277 -155
162 -162 219 -376 173 -659 -46 -284 -198 -526 -425 -676 -307 -203 -718 -166
-916 83 -159 200 -187 481 -80 795 78 228 262 441 471 544 156 78 337 102 500
68z"/>
</g>
</svg>
